<svg width="615" height="800" viewBox="0 0 615 800" fill="none" xmlns="http://www.w3.org/2000/svg">
<g opacity="0.2">
<path d="M228.571 0H114.286V133.333H228.571V0Z" fill="#282828"/>
<path d="M228.571 0H114.286V133.333H228.571V0Z" fill="#525252"/>
<path d="M342.857 0H228.571V133.333H342.857V0Z" fill="#B8B8B8"/>
<path d="M342.857 0H228.571V133.333H342.857V0Z" fill="#F4F4F4"/>
<path d="M457.143 0H342.857V133.333H457.143V0Z" fill="#B0B0B0"/>
<path d="M457.143 0H342.857V133.333H457.143V0Z" fill="#898989"/>
<path d="M571.428 0H457.143V133.333H571.428V0Z" fill="#7E7E7E"/>
<path d="M457.143 0H571.428V133.333L457.143 0Z" fill="#CCCCCC"/>
<path d="M114.286 133.333H0V266.667H114.286V133.333Z" fill="#DCDCDC"/>
<path d="M0 133.333H114.286L0 266.667V133.333Z" fill="#CACACA"/>
<path d="M342.857 133.333H228.571V266.667H342.857V133.333Z" fill="#CECECE"/>
<path d="M228.571 133.333H342.857V266.667L228.571 133.333Z" fill="#818181"/>
<path d="M457.143 133.333H342.857V266.667H457.143V133.333Z" fill="#434343"/>
<path d="M342.857 133.333L457.143 266.667H342.857V133.333Z" fill="#B5B5B5"/>
<path d="M571.428 133.333H457.143V266.667H571.428V133.333Z" fill="#878787"/>
<path d="M457.143 133.333L571.428 266.667H457.143V133.333Z" fill="#7F7F7F"/>
<path d="M685.715 133.333H571.429V266.667H685.715V133.333Z" fill="#6D6D6D"/>
<path d="M685.715 133.333H571.429V266.667H685.715V133.333Z" fill="#545454"/>
<path d="M114.286 266.667H0V400H114.286V266.667Z" fill="#E1E1E1"/>
<path d="M114.286 266.667H0V400H114.286V266.667Z" fill="#FEFEFE"/>
<path d="M228.571 266.667H114.286V400H228.571V266.667Z" fill="#EEEEEE"/>
<path d="M114.286 266.667H228.571L114.286 400V266.667Z" fill="#C4C4C4"/>
<path d="M342.857 266.667H228.571V400H342.857V266.667Z" fill="#C4C4C4"/>
<path d="M228.571 266.667H342.857L228.571 400V266.667Z" fill="#C2C2C2"/>
<path d="M457.143 266.667H342.857V400H457.143V266.667Z" fill="#797979"/>
<path d="M457.143 266.667H342.857V400H457.143V266.667Z" fill="#8F8F8F"/>
<path d="M571.428 266.667H457.143V400H571.428V266.667Z" fill="#BABABA"/>
<path d="M571.428 266.667H457.143V400H571.428V266.667Z" fill="#323232"/>
<path d="M685.715 266.667H571.429V400H685.715V266.667Z" fill="#EBEBEB"/>
<path d="M685.715 266.667H571.429V400H685.715V266.667Z" fill="#D5D5D5"/>
<path d="M457.143 400H342.857V533.333H457.143V400Z" fill="#7B7B7B"/>
<path d="M457.143 400H342.857V533.333H457.143V400Z" fill="#CCCCCC"/>
<path d="M685.715 400H571.429V533.333H685.715V400Z" fill="#FDFDFD"/>
<path d="M685.715 400H571.429V533.333H685.715V400Z" fill="#808080"/>
<path d="M228.571 533.333H114.286V666.667H228.571V533.333Z" fill="#BBBBBB"/>
<path d="M228.571 533.333H114.286V666.667H228.571V533.333Z" fill="#545454"/>
<path d="M342.857 533.333H228.571V666.667H342.857V533.333Z" fill="#9B9B9B"/>
<path d="M228.571 533.333H342.857V666.667L228.571 533.333Z" fill="#9E9E9E"/>
<path d="M457.143 533.333H342.857V666.667H457.143V533.333Z" fill="#AAAAAA"/>
<path d="M457.143 533.333H342.857V666.667H457.143V533.333Z" fill="#CBCBCB"/>
<path d="M571.428 533.333H457.143V666.667H571.428V533.333Z" fill="#7F7F7F"/>
<path d="M457.143 533.333H571.428L457.143 666.667V533.333Z" fill="#9A9A9A"/>
<path d="M685.715 533.333H571.429V666.667H685.715V533.333Z" fill="#B0B0B0"/>
<path d="M571.429 533.333L685.715 666.667H571.429V533.333Z" fill="#959595"/>
<path d="M571.428 666.667H457.143V800H571.428V666.667Z" fill="#FAFAFA"/>
<path d="M571.428 666.667H457.143V800H571.428V666.667Z" fill="#CFCFCF"/>
<path d="M685.715 666.667H571.429V800H685.715V666.667Z" fill="#898989"/>
<path d="M685.715 666.667H571.429V800H685.715V666.667Z" fill="#898989"/>
</g>
</svg>
